<?xml version="1.0" encoding="utf-8"?>
<!-- Generator: Adobe Illustrator 28.0.0, SVG Export Plug-In . SVG Version: 6.00 Build 0)  -->
<svg version="1.1" xmlns="http://www.w3.org/2000/svg" xmlns:xlink="http://www.w3.org/1999/xlink" x="0px" y="0px" width="1170px"
	 height="780px" viewBox="0 0 1170 780" style="enable-background:new 0 0 1170 780;" xml:space="preserve">
<style type="text/css">
	.st0{fill:none;}
	.st1{fill:#FFD7E5;}
	.st2{fill:#F46C6C;}
	.st3{fill:url(#New_Pattern);}
</style>
<pattern  x="73" y="902" width="390" height="390" patternUnits="userSpaceOnUse" id="New_Pattern" viewBox="23.3 -504.68 390 390" style="overflow:visible;">
	<g>
		<rect x="23.3" y="-504.68" class="st0" width="390" height="390"/>
		<g>
			<path class="st1" d="M80.06-70.15c-0.45,2.69-2.25,5.29-3.87,7.43c-2.21,2.9-5.1,5.63-8.75,6.48c-1.99,0.49-4.1-0.21-5.38-1.81
				c-1.34-1.65-1.79-4.08-1.94-6.14c-0.19-4.22,1.36-8.52,3.92-11.85c1.09-1.44,2.64-2.36,4.38-2.8c2.9-0.61,6.18,0.36,8.6,1.99
				C79.21-75.38,80.51-72.79,80.06-70.15z M76.51-71.44c-0.08-1.42-1.15-2.31-2.32-2.94c-1.81-0.87-3.85-1.43-5.79-0.63
				c-1.18,0.42-1.94,1.67-2.56,2.69c-1.84,3.11-2.58,6.78-1.73,10.33c0.21,0.76,0.55,1.76,1.32,2.13c1.27,0.37,2.75-0.37,3.81-1.04
				c2.23-1.48,4.04-3.76,5.51-5.97C75.57-68.16,76.59-69.84,76.51-71.44z M142.92-50.49c-1.31,6.19-3.4,12.17-6.63,17.63
				c-5.73,9.86-14.6,17.8-25.03,22.41c-9.35,4.17-19.87,5.64-30,4.14C71.5-7.69,62.2-11.81,54.57-18.02
				c-8.57-6.97-14.9-16.54-17.98-27.14c-2.95-10.07-2.89-20.97,0.16-31.01c3.19-10.49,9.58-20.12,18.19-26.95
				c8.13-6.47,18.04-10.63,28.4-11.63c5.25-0.49,10.6-0.36,15.78,0.64c10.02,1.86,19.46,6.59,26.95,13.49
				c8.98,8.21,15.04,19.47,16.97,31.48C144.11-62.93,143.89-56.69,142.92-50.49z M91.6-111.42c0.9,2.31,1.61,4.53,1.27,7.06
				c-0.39,3.03-2.22,5.61-4.1,7.92c-1.04,1.33-2.38,2.74-2.97,4.33c-0.46,1.2,0.28,2.3,0.95,3.24c1.55,2.01,3.18,3.74,4.23,6.11
				c1.29,2.88,1.36,5.89,1.17,8.99c-0.08,1.6-0.27,3.62,0.45,5.09c0.64,1.19,1.95,1.3,3.16,1.25c2.95-0.21,6-1.62,8.83-2.48
				c3.6-1.15,7.32-1.66,11.04-0.73c5.11,1.25,9.82,3.89,15.33,3.55c3.36-0.19,6.39-1.92,7.87-5.01c-1.64-6.49-4.34-12.67-8.28-18.11
				c-6.34-8.84-15.51-15.53-25.89-18.83C100.43-110.4,96.04-111.14,91.6-111.42z M47.94-90.65c2.99,0.81,5.43,2.86,8.41,3.19
				c1.78,0.15,2.96-0.91,4.06-2.14c1.83-2.13,3.5-4.4,5.36-6.51c1.07-1.28,2.48-2.77,2.9-4.42c0.41-2.12-0.41-4.24-1.96-5.71
				C59.25-102.68,52.92-97.24,47.94-90.65z M91.47-9.4c-0.49-1.36-1-2.66-2-3.73c-1.59-1.74-3.34-2.96-4.44-5.14
				c-0.99-1.85-1.07-3.96-0.52-5.97c0.99-3.61,3.25-7.17,3.98-10.86c0.19-1.12,0.28-2.36-0.68-3.17c-1.1-0.89-2.93-0.95-4.29-0.93
				c-5.18,0.27-11.11,1.76-16.16,0.01c-3.81-1.3-5.87-4.05-8.5-6.86c-1.57-1.73-3.7-2.09-5.94-1.92c-4.42,0.35-8.69,1.04-13.16,0.89
				c2.94,10.75,9.34,20.41,18.21,27.18C67.44-12.58,79.52-8.82,91.47-9.4z M138.55-47.69c-3.92,0.5-7.86,0.57-11.8,0.44
				c-2.5-0.03-5.69-0.17-7.91,1.16c-1.46,0.85-2.09,2.43-2.06,4.07c0.12,3.44,1.66,6.42,1.51,9.98c0.01,2.69-1.7,5.03-4.05,6.23
				c-2.3,1.19-4.87,1.15-7.31,1.88c-1.19,0.35-2.27,0.94-3,1.97c-1.22,1.71-1.35,3.86-1,5.87c0.34,1.6,1.16,2.85,2.05,4.19
				c9.96-3.16,18.84-9.64,25.07-18.02C134.01-35.23,136.85-41.29,138.55-47.69z M139.7-67.1c-2.02,1.77-4.33,3.04-7.01,3.45
				c-3.75,0.55-7.35-0.11-10.91-1.26c-3.6-1.08-6.89-2.74-10.72-2.56c-4.99,0.12-9.3,2.9-14.13,3.56c-2.05,0.3-4.28,0.08-5.95-1.25
				c-1.84-1.47-2.43-3.65-2.5-5.92c-0.03-3.26,0.59-6.6-0.59-9.76c-1.2-3.16-3.99-5.14-5.31-8.05c-0.72-1.56-0.68-3.39,0.04-4.94
				c1.45-3.23,4.74-5.78,6.16-9.13c1.23-2.8,0.33-6.25-1.65-8.49c-5.79,0.26-11.47,1.54-16.88,3.6c1.36,2.13,2.35,4.33,2.16,6.92
				c-0.22,2.33-1.42,4.15-2.87,5.91c-1.76,2.07-3.5,4.16-5.18,6.3c-1.74,2.16-3.55,4.27-6.44,4.76c-3.42,0.52-6.14-1.18-9.09-2.57
				c-1.07-0.57-2.16-0.57-3.34-0.49c-6.53,10.7-8.91,23.71-6.57,36.03c3.1,0.62,5.9,0.07,9.03-0.15c3.36-0.28,6.81-1.05,10.05,0.22
				c4.11,1.57,5.8,6.47,10.14,8.18c4.01,1.54,8.91,0.4,13.08,0.1c2.75-0.15,5.85-0.42,8.27,1.15c2.03,1.26,2.95,3.63,2.7,5.96
				c-0.39,3.72-2.55,7.54-3.83,11.02c-0.52,1.45-0.89,3.15-0.14,4.59c0.97,1.86,3.01,3.18,4.31,4.87c1.3,1.56,2.03,3.41,2.53,5.37
				c2.12-0.27,4.19-0.64,6.27-1.14c-1.37-2.31-2.33-4.74-2.22-7.47c0.16-3.24,1.6-6.53,4.55-8.15c2.63-1.52,5.3-1.43,8.08-2.23
				c1.57-0.47,2.88-1.63,2.98-3.37c0.07-3.41-1.68-6.87-1.55-10.35c0.05-2.34,1.05-4.61,2.88-6.1c2-1.61,4.38-2.13,6.88-2.33
				c2.96-0.29,5.85,0.23,8.8,0.03c2.64-0.2,5.14-0.1,7.7-0.9C140.2-56.8,140.32-61.98,139.7-67.1z"/>
			<path class="st1" d="M393.59-29.08c-0.68,0-1.3-0.47-1.46-1.17c-0.89-3.9-1.51-7.96-1.86-12.05c-0.07-0.83,0.54-1.55,1.37-1.62
				c0.81-0.06,1.55,0.54,1.62,1.37c0.34,3.96,0.94,7.88,1.8,11.64c0.18,0.81-0.32,1.61-1.13,1.8
				C393.81-29.09,393.7-29.08,393.59-29.08z M391.5-52.91c-0.02,0-0.04,0-0.06,0c-0.83-0.03-1.47-0.73-1.44-1.56
				c0.15-3.9,0.52-7.97,1.11-12.1c0.12-0.82,0.88-1.39,1.7-1.27c0.82,0.12,1.39,0.88,1.27,1.7c-0.57,4.03-0.94,8-1.08,11.79
				C392.97-53.55,392.3-52.91,391.5-52.91z M394.79-76.66c-0.11,0-0.22-0.01-0.33-0.04c-0.81-0.18-1.32-0.99-1.13-1.79
				c0.84-3.72,1.87-7.66,3.05-11.7c0.23-0.8,1.07-1.25,1.86-1.02c0.79,0.23,1.25,1.07,1.02,1.86c-1.17,3.99-2.18,7.86-3.01,11.52
				C396.09-77.13,395.48-76.66,394.79-76.66z M401.46-99.71c-0.16,0-0.32-0.03-0.48-0.08c-0.78-0.27-1.2-1.12-0.94-1.9
				c1.2-3.51,2.53-7.22,4.07-11.34c0.29-0.78,1.16-1.17,1.93-0.88c0.78,0.29,1.17,1.15,0.88,1.93c-1.53,4.1-2.85,7.78-4.04,11.26
				C402.67-100.11,402.09-99.71,401.46-99.71z M409.8-122.23c-0.18,0-0.36-0.03-0.54-0.1c-0.77-0.3-1.16-1.17-0.86-1.94l1.78-4.57
				c0.86-2.21,1.72-4.42,2.57-6.61c0.3-0.77,1.17-1.15,1.94-0.86c0.77,0.3,1.16,1.17,0.86,1.94c-0.85,2.2-1.71,4.4-2.57,6.62
				l-1.78,4.57C410.97-122.59,410.4-122.23,409.8-122.23z M418.4-144.64c-0.17,0-0.35-0.03-0.52-0.09
				c-0.78-0.28-1.18-1.15-0.89-1.92c1.51-4.13,2.79-7.83,3.91-11.29c0.25-0.79,1.1-1.22,1.89-0.97c0.79,0.25,1.22,1.1,0.97,1.89
				c-1.13,3.5-2.42,7.23-3.95,11.4C419.59-145.02,419.01-144.64,418.4-144.64z M425.67-167.51c-0.12,0-0.25-0.02-0.37-0.05
				c-0.8-0.2-1.29-1.02-1.09-1.82c1.05-4.14,1.83-7.93,2.38-11.61c0.12-0.82,0.88-1.38,1.71-1.26c0.82,0.12,1.38,0.89,1.26,1.71
				c-0.57,3.77-1.36,7.66-2.44,11.9C426.96-167.96,426.34-167.51,425.67-167.51z M429.06-191.2c0,0-0.01,0-0.01,0
				c-0.83-0.01-1.49-0.68-1.49-1.51l0-0.33c0-3.94-0.35-7.74-1.04-11.3c-0.16-0.81,0.37-1.6,1.19-1.76s1.6,0.37,1.76,1.19
				c0.73,3.74,1.1,7.74,1.1,11.87l0,0.36C430.55-191.86,429.88-191.2,429.06-191.2z M424.37-214.54c-0.57,0-1.12-0.33-1.37-0.88
				c-1.57-3.46-3.58-6.81-5.99-9.96c-0.5-0.66-0.38-1.6,0.28-2.1c0.66-0.5,1.6-0.38,2.1,0.28c2.55,3.33,4.68,6.88,6.34,10.55
				c0.34,0.75,0.01,1.64-0.75,1.99C424.79-214.58,424.58-214.54,424.37-214.54z M410.03-233.55c-0.36,0-0.71-0.13-1-0.38
				c-2.77-2.48-5.91-4.89-9.33-7.18c-0.69-0.46-0.87-1.39-0.41-2.08c0.46-0.69,1.39-0.87,2.08-0.41c3.54,2.36,6.79,4.87,9.67,7.44
				c0.62,0.55,0.67,1.5,0.12,2.12C410.86-233.72,410.45-233.55,410.03-233.55z"/>
			<path class="st1" d="M144.28,0c-0.29,0-0.59-0.09-0.85-0.26c-0.68-0.47-0.85-1.4-0.38-2.09c2.12-3.08,4.12-6.5,5.93-10.15
				c0.37-0.74,1.27-1.04,2.01-0.68c0.74,0.37,1.05,1.27,0.68,2.01c-1.87,3.78-3.94,7.32-6.15,10.52C145.23-0.23,144.76,0,144.28,0z
				 M155.03-21.37c-0.17,0-0.35-0.03-0.52-0.09c-0.78-0.29-1.17-1.15-0.89-1.93c1.28-3.46,2.48-7.16,3.68-11.31
				c0.23-0.8,1.06-1.25,1.86-1.02c0.8,0.23,1.25,1.06,1.02,1.86c-1.22,4.22-2.45,7.98-3.75,11.51
				C156.22-21.75,155.64-21.37,155.03-21.37z M161.83-44.39c-0.12,0-0.24-0.01-0.36-0.04c-0.8-0.2-1.3-1.01-1.1-1.82
				c0.89-3.6,1.75-7.27,2.58-10.82l0.2-0.85c0.19-0.81,0.99-1.31,1.8-1.12c0.81,0.19,1.31,1,1.12,1.8l-0.2,0.85
				c-0.83,3.56-1.69,7.24-2.58,10.85C163.12-44.84,162.5-44.39,161.83-44.39z M167.41-67.74c-0.12,0-0.24-0.02-0.37-0.05
				c-0.8-0.2-1.29-1.02-1.09-1.82c1.11-4.42,2.16-8.23,3.19-11.65c0.24-0.79,1.08-1.24,1.87-1c0.79,0.24,1.24,1.08,1,1.87
				c-1.02,3.38-2.06,7.14-3.16,11.51C168.69-68.2,168.08-67.74,167.41-67.74z M174.52-90.65c-0.19,0-0.38-0.04-0.56-0.11
				c-0.77-0.31-1.14-1.18-0.83-1.95c1.63-4.06,3.35-7.65,5.25-11c0.41-0.72,1.33-0.97,2.05-0.56c0.72,0.41,0.97,1.33,0.56,2.05
				c-1.83,3.23-3.49,6.7-5.07,10.63C175.68-91.01,175.12-90.65,174.52-90.65z M186.5-111.3c-0.34,0-0.69-0.12-0.97-0.36
				c-0.63-0.54-0.71-1.48-0.17-2.11c2.69-3.16,5.69-6,8.92-8.43c0.66-0.5,1.6-0.36,2.1,0.3c0.5,0.66,0.36,1.6-0.3,2.1
				c-3.06,2.3-5.9,4.98-8.44,7.97C187.35-111.48,186.93-111.3,186.5-111.3z M205.46-125.57c-0.57,0-1.11-0.33-1.37-0.88
				c-0.34-0.75-0.01-1.64,0.74-1.99c3.55-1.62,7.44-2.96,11.54-4c0.8-0.2,1.62,0.28,1.82,1.09c0.2,0.8-0.28,1.62-1.09,1.82
				c-3.93,0.99-7.64,2.27-11.03,3.82C205.88-125.61,205.67-125.57,205.46-125.57z"/>
		</g>
		<g>
			<path class="st1" d="M3.59-29.08c-0.68,0-1.3-0.47-1.46-1.17c-0.89-3.9-1.51-7.96-1.86-12.05c-0.07-0.83,0.54-1.55,1.37-1.62
				c0.81-0.06,1.55,0.54,1.62,1.37c0.34,3.96,0.94,7.88,1.8,11.64c0.18,0.81-0.32,1.61-1.13,1.8C3.81-29.09,3.7-29.08,3.59-29.08z
				 M1.5-52.91c-0.02,0-0.04,0-0.06,0C0.61-52.95-0.03-53.64,0-54.47c0.15-3.9,0.52-7.97,1.11-12.1c0.12-0.82,0.88-1.39,1.7-1.27
				c0.82,0.12,1.39,0.88,1.27,1.7c-0.57,4.03-0.94,8-1.08,11.79C2.97-53.55,2.3-52.91,1.5-52.91z M4.79-76.66
				c-0.11,0-0.22-0.01-0.33-0.04c-0.81-0.18-1.32-0.99-1.13-1.79c0.84-3.72,1.87-7.66,3.05-11.7c0.23-0.8,1.07-1.25,1.86-1.02
				c0.79,0.23,1.25,1.07,1.02,1.86c-1.17,3.99-2.18,7.86-3.01,11.52C6.09-77.13,5.48-76.66,4.79-76.66z M11.46-99.71
				c-0.16,0-0.32-0.03-0.48-0.08c-0.78-0.27-1.2-1.12-0.94-1.9c1.2-3.51,2.53-7.22,4.07-11.34c0.29-0.78,1.16-1.17,1.93-0.88
				c0.78,0.29,1.17,1.15,0.88,1.93c-1.53,4.1-2.85,7.78-4.04,11.26C12.67-100.11,12.09-99.71,11.46-99.71z M19.8-122.23
				c-0.18,0-0.36-0.03-0.54-0.1c-0.77-0.3-1.16-1.17-0.86-1.94l1.78-4.57c0.86-2.21,1.72-4.42,2.57-6.61
				c0.3-0.77,1.17-1.15,1.94-0.86c0.77,0.3,1.16,1.17,0.86,1.94c-0.85,2.2-1.71,4.4-2.57,6.62l-1.78,4.57
				C20.97-122.59,20.4-122.23,19.8-122.23z M28.4-144.64c-0.17,0-0.35-0.03-0.52-0.09c-0.78-0.28-1.18-1.15-0.89-1.92
				c1.51-4.13,2.79-7.83,3.91-11.29c0.25-0.79,1.1-1.22,1.89-0.97c0.79,0.25,1.22,1.1,0.97,1.89c-1.13,3.5-2.42,7.23-3.95,11.4
				C29.59-145.02,29.01-144.64,28.4-144.64z M35.67-167.51c-0.12,0-0.25-0.02-0.37-0.05c-0.8-0.2-1.29-1.02-1.09-1.82
				c1.05-4.14,1.83-7.93,2.38-11.61c0.12-0.82,0.88-1.38,1.71-1.26c0.82,0.12,1.38,0.89,1.26,1.71c-0.57,3.77-1.36,7.66-2.44,11.9
				C36.96-167.96,36.34-167.51,35.67-167.51z M39.06-191.2c0,0-0.01,0-0.01,0c-0.83-0.01-1.49-0.68-1.49-1.51l0-0.33
				c0-3.94-0.35-7.74-1.04-11.3c-0.16-0.81,0.37-1.6,1.19-1.76s1.6,0.37,1.76,1.19c0.73,3.74,1.1,7.74,1.1,11.87l0,0.36
				C40.55-191.86,39.88-191.2,39.06-191.2z M34.37-214.54c-0.57,0-1.12-0.33-1.37-0.88c-1.57-3.46-3.58-6.81-5.99-9.96
				c-0.5-0.66-0.38-1.6,0.28-2.1c0.66-0.5,1.6-0.38,2.1,0.28c2.55,3.33,4.68,6.88,6.34,10.55c0.34,0.75,0.01,1.64-0.75,1.99
				C34.79-214.58,34.58-214.54,34.37-214.54z M20.03-233.55c-0.36,0-0.71-0.13-1-0.38c-2.77-2.48-5.91-4.89-9.33-7.18
				c-0.69-0.46-0.87-1.39-0.41-2.08c0.46-0.69,1.39-0.87,2.08-0.41c3.54,2.36,6.79,4.87,9.67,7.44c0.62,0.55,0.67,1.5,0.12,2.12
				C20.86-233.72,20.45-233.55,20.03-233.55z"/>
		</g>
		<g>
			<path class="st1" d="M363.66-458.89c-2.59,8.29-7.56,15.82-13.38,22.2c-5.05,5.61-11.09,10.52-17.16,14.98
				c-3.01,2.24-6.25,4.27-9.41,6.29c-1.06,0.69-2.22,1.08-3.36,1.6c-2.96,1.58-5.8,3.19-9.12,3.92c-4.64,1.1-9.62,0.59-13.85-1.66
				c-4.92-2.6-8.82-7.48-9.8-13.01c-0.39-2.4-0.36-5.04,0.08-7.44c0.98-5.2,3.83-10.07,6.27-14.73c2.15-3.93,3.87-8.07,5.21-12.34
				c1.88-5.91,2.94-11.85,4.89-17.73c1.58-4.77,3.69-9.56,6.63-13.66c2.96-4.13,6.8-7.73,11.32-10.1c4.25-2.26,9.03-3.35,13.83-3.32
				c7.81-0.03,15.48,3.28,20.94,8.84c4.38,4.41,7.15,10.14,8.25,16.23C366.19-472.22,365.69-465.28,363.66-458.89z M359.9-483.68
				c-2.3-6.06-6.97-11.13-12.79-13.96c-5-2.45-10.79-3.24-16.27-2.19c-5.35,0.91-10.21,3.66-13.97,7.54
				c-3.94,4-6.58,8.83-8.52,14.06c-2.33,6.21-3.42,12.44-5.33,18.76c-0.9,2.96-1.92,5.89-3.14,8.73c-2,4.69-4.82,9.06-6.88,13.78
				c-1.53,3.52-2.45,7.2-1.95,11.06c0.63,5.41,4.8,10.14,9.85,11.97c3.89,1.42,8.33,1.19,12.17-0.31c2.63-0.96,4.88-2.46,7.33-3.75
				c3.53-1.57,6.55-3.79,9.72-5.96c8.01-5.84,15.4-11.95,21.46-19.87c4.55-5.93,8.04-12.49,9.6-19.84
				C362.58-470.23,362.32-477.38,359.9-483.68z M331.21-492.49c-0.98,1.04-0.74,2.13-0.56,3.41c-0.8,1.91-1.56,3.82-1.94,5.87
				c-0.23,1.03-0.31,2.17-0.72,3.15c-0.59,1.02-1.45,1.91-2.16,2.85c-2.22,2.88-4.46,5.74-6.69,8.62
				c-4.44,5.74-8.88,11.6-13.82,16.91c-2.57-0.42-5.06,2.77-3.54,5.08c1.05,1.87,3.49,2.41,5.16,0.99c1.18-0.99,1.24-2.23,1.09-3.65
				c6.96-7.73,13.06-16.08,19.54-24.36c-0.32,10.98,2.29,22.73,2.92,33.53c0.07,1.55,0.13,3.12-0.03,4.66
				c-0.17,1.34-1.5,2.41-1.73,3.74c-0.16,1.66,1.25,3.05,2.88,3.05c1.92,0.18,3.69-1.5,3.55-3.43c-0.16-0.77-0.71-1.49-1.13-2.14
				c0.4-5.98-0.37-11.81-1.11-17.72c-1.1-9.03-2.49-18.09-1.25-27.17c0.34-2.7,0.91-5.33,1.96-7.85c1.34-0.33,2.55-0.44,3.39-1.67
				c0.99-1.38,0.61-3.33-0.88-4.17C334.56-493.78,332.56-493.93,331.21-492.49z"/>
			<path class="st1" d="M288.66-462.38c-3.99,5.9-10.07,10.32-16.37,13.48c-6.56,3.31-13.75,5.3-20.58,8.08
				c-4.9,1.98-9.52,4.39-14.16,6.91c-4.61,2.49-9.1,4.82-14.25,6.03c-4.28,1.03-8.8,0.85-12.89-0.85c-3.89-1.53-7.2-4.37-9.14-8.08
				c-1.4-2.77-2.02-5.92-1.48-9c0.86-5.51,3.88-10.49,7.08-14.95c0.92-1.39,1.78-2.8,2.7-4.19c4.28-6.52,9.36-12.52,14.83-18.07
				c4.33-4.32,9.08-8.45,14.22-11.8c4.59-2.98,9.49-5.37,14.83-6.64c4.79-1.14,9.76-1.4,14.62-0.52c7.49,1.27,14.55,5.3,19.37,11.17
				c2.78,3.36,4.7,7.37,5.34,11.7C293.73-473.27,291.97-467.19,288.66-462.38z M285.39-487.61c-3.44-4.53-8.26-7.96-13.66-9.73
				c-6.34-2.09-13.26-1.96-19.61-0.02c-7.85,2.37-14.79,7.39-20.87,12.78c-5.37,4.84-10.27,10.22-14.68,15.94
				c-2.23,2.93-4.33,5.95-6.11,9.17c-1.23,1.94-2.62,3.77-3.88,5.69c-1.61,2.76-2.93,5.89-3.28,9.09c-0.31,2.89,0.57,5.83,2.36,8.11
				c2.36,3.12,6.17,5.04,10,5.57c2.99,0.48,6.07-0.06,8.93-0.94c4.59-1.4,8.82-3.83,13.04-6.07c4.38-2.36,8.82-4.6,13.44-6.42
				c6.81-2.71,14.08-4.74,20.56-8.17c4.99-2.59,9.48-5.93,13-10.33c2.79-3.56,4.61-7.78,4.73-12.34
				C289.54-479.72,288.06-484.08,285.39-487.61z M278.48-482.88c-1.04,0.62-1.23,1.66-1.62,2.71c-1.7,1.03-3.48,1.89-5.42,2.36
				c-3.45,0.85-6.74,0.76-10.27,0.89c-9.2,0.17-18.2,0.91-27.18,3.01c-2.67,0.63-5.26,1.52-7.89,2.3c-2.38-1.04-5.22,1.05-5.11,3.58
				c0.03,0.73,0.1,1.83,0.83,2.23c1.27,0.66,3.04,1.04,4.3,0.17c1.03-0.62,1.29-1.71,1.74-2.75c8.3-2.88,17.3-4.11,26.04-4.65
				c4.29-0.28,8.59-0.17,12.86-0.49c-6,6.25-11.28,13.32-16.45,20.25c-1.01,1.33-2.82,1.34-3.49,3c-0.74,1.58,0.24,3.42,1.82,3.99
				c1.68,0.68,3.78-0.18,4.38-1.92c0.28-0.75-0.05-1.69-0.18-2.46c3.67-4.99,7.45-9.92,11.39-14.69c2.62-3.07,5.39-6.17,8.51-8.75
				c0.71-0.6,1.68-0.88,2.54-1.25c1.18-0.47,2.28-1.08,3.4-1.68c1.19,0.26,2.18,0.7,3.31-0.05c1.04-0.69,1.91-2.61,1.62-3.84
				C282.92-482.78,280.25-484.11,278.48-482.88z"/>
			<path class="st1" d="M80.06-460.15c-0.45,2.69-2.25,5.29-3.87,7.43c-2.21,2.9-5.1,5.63-8.75,6.48c-1.99,0.49-4.1-0.21-5.38-1.81
				c-1.34-1.65-1.79-4.08-1.94-6.14c-0.19-4.22,1.36-8.52,3.92-11.85c1.09-1.44,2.64-2.36,4.38-2.8c2.9-0.61,6.18,0.36,8.6,1.99
				C79.21-465.38,80.51-462.79,80.06-460.15z M76.51-461.44c-0.08-1.42-1.15-2.31-2.32-2.94c-1.81-0.87-3.85-1.43-5.79-0.63
				c-1.18,0.42-1.94,1.67-2.56,2.69c-1.84,3.11-2.58,6.78-1.73,10.33c0.21,0.76,0.55,1.76,1.32,2.13c1.27,0.37,2.75-0.37,3.81-1.04
				c2.23-1.48,4.04-3.76,5.51-5.97C75.57-458.16,76.59-459.84,76.51-461.44z M142.92-440.49c-1.31,6.19-3.4,12.17-6.63,17.63
				c-5.73,9.86-14.6,17.8-25.03,22.41c-9.35,4.17-19.87,5.64-30,4.14c-9.74-1.39-19.05-5.51-26.68-11.72
				c-8.57-6.97-14.9-16.54-17.98-27.14c-2.95-10.07-2.89-20.97,0.16-31.01c3.19-10.49,9.58-20.12,18.19-26.95
				c8.13-6.47,18.04-10.63,28.4-11.63c5.25-0.49,10.6-0.36,15.78,0.64c10.02,1.86,19.46,6.59,26.95,13.49
				c8.98,8.21,15.04,19.47,16.97,31.48C144.11-452.93,143.89-446.69,142.92-440.49z M91.6-501.42c0.9,2.31,1.61,4.53,1.27,7.06
				c-0.39,3.03-2.22,5.61-4.1,7.92c-1.04,1.33-2.38,2.74-2.97,4.33c-0.46,1.2,0.28,2.3,0.95,3.24c1.55,2.01,3.18,3.74,4.23,6.11
				c1.29,2.88,1.36,5.89,1.17,8.99c-0.08,1.6-0.27,3.62,0.45,5.09c0.64,1.19,1.95,1.3,3.16,1.25c2.95-0.21,6-1.62,8.83-2.48
				c3.6-1.15,7.32-1.66,11.04-0.73c5.11,1.25,9.82,3.89,15.33,3.55c3.36-0.19,6.39-1.92,7.87-5.01c-1.64-6.49-4.34-12.67-8.28-18.11
				c-6.34-8.84-15.51-15.53-25.89-18.83C100.43-500.4,96.04-501.14,91.6-501.42z M47.94-480.65c2.99,0.81,5.43,2.86,8.41,3.19
				c1.78,0.15,2.96-0.91,4.06-2.14c1.83-2.13,3.5-4.4,5.36-6.51c1.07-1.28,2.48-2.77,2.9-4.42c0.41-2.12-0.41-4.24-1.96-5.71
				C59.25-492.68,52.92-487.24,47.94-480.65z M91.47-399.4c-0.49-1.36-1-2.66-2-3.73c-1.59-1.74-3.34-2.96-4.44-5.14
				c-0.99-1.85-1.07-3.96-0.52-5.97c0.99-3.61,3.25-7.17,3.98-10.86c0.19-1.12,0.28-2.36-0.68-3.17c-1.1-0.89-2.93-0.95-4.29-0.93
				c-5.18,0.27-11.11,1.76-16.16,0.01c-3.81-1.3-5.87-4.05-8.5-6.86c-1.57-1.73-3.7-2.09-5.94-1.92c-4.42,0.35-8.69,1.04-13.16,0.89
				c2.94,10.75,9.34,20.41,18.21,27.18C67.44-402.58,79.52-398.82,91.47-399.4z M138.55-437.69c-3.92,0.5-7.86,0.57-11.8,0.44
				c-2.5-0.03-5.69-0.17-7.91,1.16c-1.46,0.85-2.09,2.43-2.06,4.07c0.12,3.44,1.66,6.42,1.51,9.98c0.01,2.69-1.7,5.03-4.05,6.23
				c-2.3,1.19-4.87,1.15-7.31,1.88c-1.19,0.35-2.27,0.94-3,1.97c-1.22,1.71-1.35,3.86-1,5.87c0.34,1.6,1.16,2.85,2.05,4.19
				c9.96-3.16,18.84-9.64,25.07-18.02C134.01-425.23,136.85-431.29,138.55-437.69z M139.7-457.1c-2.02,1.77-4.33,3.04-7.01,3.45
				c-3.75,0.55-7.35-0.11-10.91-1.26c-3.6-1.08-6.89-2.74-10.72-2.56c-4.99,0.12-9.3,2.9-14.13,3.56c-2.05,0.3-4.28,0.08-5.95-1.25
				c-1.84-1.47-2.43-3.65-2.5-5.92c-0.03-3.26,0.59-6.6-0.59-9.76c-1.2-3.16-3.99-5.14-5.31-8.05c-0.72-1.56-0.68-3.39,0.04-4.94
				c1.45-3.23,4.74-5.78,6.16-9.13c1.23-2.8,0.33-6.25-1.65-8.49c-5.79,0.26-11.47,1.54-16.88,3.6c1.36,2.13,2.35,4.33,2.16,6.92
				c-0.22,2.33-1.42,4.15-2.87,5.91c-1.76,2.07-3.5,4.16-5.18,6.3c-1.74,2.16-3.55,4.27-6.44,4.76c-3.42,0.52-6.14-1.18-9.09-2.57
				c-1.07-0.57-2.16-0.57-3.34-0.49c-6.53,10.7-8.91,23.71-6.57,36.03c3.1,0.62,5.9,0.07,9.03-0.15c3.36-0.28,6.81-1.05,10.05,0.22
				c4.11,1.57,5.8,6.47,10.14,8.18c4.01,1.54,8.91,0.4,13.08,0.1c2.75-0.15,5.85-0.42,8.27,1.15c2.03,1.26,2.95,3.63,2.7,5.96
				c-0.39,3.72-2.55,7.54-3.83,11.02c-0.52,1.45-0.89,3.15-0.14,4.59c0.97,1.86,3.01,3.18,4.31,4.87c1.3,1.56,2.03,3.41,2.53,5.37
				c2.12-0.27,4.19-0.64,6.27-1.14c-1.37-2.31-2.33-4.74-2.22-7.47c0.16-3.24,1.6-6.53,4.55-8.15c2.63-1.52,5.3-1.43,8.08-2.23
				c1.57-0.47,2.88-1.63,2.98-3.37c0.07-3.41-1.68-6.87-1.55-10.35c0.05-2.34,1.05-4.61,2.88-6.1c2-1.61,4.38-2.13,6.88-2.33
				c2.96-0.29,5.85,0.23,8.8,0.03c2.64-0.2,5.14-0.1,7.7-0.9C140.2-446.8,140.32-451.98,139.7-457.1z"/>
			<path class="st1" d="M268.85-371.01c-0.24,6.06-0.93,12.19-2.38,18.09c-1.57,6.44-5.34,12.17-10.4,16.42
				c-1.24,1.07-2.58,2.02-3.85,3.05c-1.04,0.87-1.98,1.83-3.11,2.61c-2.47,1.71-5.46,2.79-8.36,3.52
				c-4.46,1.11-9.26,1.48-13.84,1.83c-9.33,0.69-18.55,1.23-27.91,0.81c-4.07-0.25-7.98-0.58-11.86-1.92
				c-3.46-1.21-6.61-3.11-8.96-5.96c-2.99-3.6-4.22-7.98-4.99-12.51c-1.17-7.24-1.01-14.82-0.42-22.1c0.24-3.5,0.77-7.03,1.68-10.43
				c0.75-2.71,1.91-5.52,3.81-7.63c1.06-1.18,2.3-2.01,3.58-2.92c5.5-4.14,11.95-8.01,18.73-9.51c5.21-1.22,10.71-1.68,16.03-2.04
				c5.36-0.39,10.7-0.32,16.07-0.32c4.61,0.01,9.21,0.26,13.79,0.71c3.85,0.42,7.91,0.93,11.59,2.18c2.43,0.82,4.66,2.02,6.42,3.91
				c1.89,2,2.84,4.48,3.47,7.12C269.16-381.08,268.92-376.17,268.85-371.01z M253.16-387.13c1.43,1.04,2.54,2.11,3.6,3.52
				c2.2-1.79,4.2-3.78,6.27-5.72c-0.91-1.23-1.9-2.32-3.22-3.11C257.5-390.81,255.28-389.01,253.16-387.13z M190.83-389.88
				c8.2-0.27,16.42-0.4,24.63-0.41c6.42-0.1,12.86-0.23,19.27-0.04c4.92,0.1,10.05,0.35,14.81,1.66c2.03-1.92,4.19-3.68,6.39-5.4
				c-5.54-1.46-11.43-1.87-17.13-2.2c-8.51-0.44-17.04-0.27-25.53,0.41c-5.1,0.45-10.55,1.03-15.41,2.69
				C195.38-392.33,193.11-391.13,190.83-389.88z M253.07-344.51c1.54-6.81,2.54-13.79,2.95-20.76c0.29-3.81,0.14-7.68-0.52-11.45
				c-0.54-2.75-1.5-5.43-3.92-7.07c-2.63-1.73-6.3-2.19-9.37-2.53c-7.65-0.68-15.14-0.44-22.93-0.44c-2.17,0-4.33,0.01-6.5,0.11
				c-7.79,0.17-15.55,0.02-23.35,0.47c-1.5,0.1-3.18,0.03-4.56,0.65c-2.14,0.97-4.04,2.3-5.18,4.4c-1.78,3.16-2.45,7.14-2.97,10.69
				c-0.82,7.67-1.19,15.67-0.18,23.33c0.61,4.18,1.5,8.6,4.18,11.99c2.54,3.29,6.55,5.05,10.52,5.9c4.98,1.01,10.35,1.02,15.41,1.01
				c7.3,0.02,14.5-0.52,21.81-1.05c5.13-0.44,10.72-0.92,15.52-2.89c1.83-0.73,3.48-1.76,4.82-3.21
				C251.26-337.7,252.27-341.32,253.07-344.51z M264.39-385.58c-2.03,1.76-3.97,3.63-6.02,5.37c1.58,5.46,1.5,10.84,1.2,16.47
				c-0.55,7.55-1.71,15.07-3.56,22.41c2.17-2.37,4.08-4.89,5.38-7.85c1.85-4.2,2.57-8.99,3.16-13.51c0.51-3.76,0.66-7.6,0.75-11.39
				C265.35-377.96,265.25-381.76,264.39-385.58z M248.32-371.81c-1.45,1.42-3.71,1.97-5.67,2.12c-2.24,0.15-4.72,0.12-6.86-0.62
				c-1.42-0.48-2.66-1.37-3.39-2.7c-1.05-1.77-0.89-4.27-0.59-6.23c0.27-1.54,1.43-2.66,2.92-3.05c2.1-0.57,4.6-0.21,6.75-0.05
				c2.07,0.2,4.49,0.41,6.21,1.68C250.39-378.62,250.72-374.22,248.32-371.81z M245.75-377.58c-0.58-0.62-1.65-0.78-2.45-0.93
				c-2.57-0.36-5.21-0.55-7.8-0.33c-0.2,1.31-0.64,3.24,0.24,4.38c0.78,0.87,2.35,1.04,3.44,1.17c1.93,0.15,4.1,0.12,5.92-0.6
				C246.54-374.45,246.63-376.51,245.75-377.58z M229.94-353.07c-1.69,4.66-5.26,8.39-9.67,10.58c-5.46,2.75-11.77,3.84-17.84,3.14
				c-4.32-0.51-8.27-2.72-11.15-5.96c-3.5-3.89-5.25-9.01-5.37-14.21c0.02-5.7,2.07-11.34,6.06-15.46
				c2.73-2.77,6.39-4.87,10.27-5.39c3.86-0.63,7.9-0.38,11.72,0.39c5.04,1.05,10.07,3.37,13.36,7.45
				C231.62-367.15,232.47-359.42,229.94-353.07z M219.64-362.59c-0.69-5.24-3.62-10.13-8.32-12.69c-3.03-1.65-6.48-2.06-9.83-1.22
				c-5.33,1.31-9.32,5.62-11.02,10.73c-2.33,7.03-0.45,15.33,5.52,19.98c4.45,3.57,10.92,3.92,15.76,0.91
				C217.71-348.55,220.57-355.77,219.64-362.59z M224.93-369.77c-1.94-2.72-4.66-4.25-7.64-5.59c2.47,2.72,4.37,5.84,5.29,9.42
				c1.97,7.21,0.15,15.13-4.81,20.72c2.53-1.26,4.84-2.77,6.57-5.06C228.56-355.82,229-364.02,224.93-369.77z M211.79-350.56
				c-1.84,2.19-4.54,3.62-7.43,3.7c-3.01-0.02-5.8-1.53-7.65-3.87c-3.99-5.05-3.87-12.84,0.13-17.85c1.49-1.85,3.43-3.26,5.78-3.78
				c3.41-0.66,6.82,0.6,9.09,3.19C216.19-364.14,216.11-355.67,211.79-350.56z M207.78-367.91c-1.55-1.09-3.4-1.3-5.18-0.63
				c-2.67,0.99-4.36,3.65-4.95,6.34c-0.81,3.55,0.03,7.87,2.9,10.31c1.79,1.55,4.35,1.87,6.44,0.72c2.71-1.45,4.19-4.64,4.46-7.59
				C211.76-362.11,210.62-365.91,207.78-367.91z"/>
			<path class="st1" d="M105.58-333.65c-1.8,6.49-4.75,12.4-8.35,18.06c-3.85,6.08-8.29,11.82-12.94,17.3
				c-2,2.31-3.99,4.7-6.22,6.79c-0.78,0.69-1.8,1.54-2.9,1.48c-1.85-0.16-3.37-1.22-4.87-2.21c-5.95-3.71-11-8.23-16.12-12.97
				c-5.91-5.59-10.83-11.91-13.69-19.59c-2.21-5.8-2.78-12.17-1.3-18.22c2.57-10.33,10.33-19.02,20.06-23.19
				c8.02-3.44,17.25-4.05,25.68-1.88c4.87,1.25,9.66,3.49,13.49,6.78c3.73,3.18,6.47,7.5,7.64,12.27
				C107.31-344,106.96-338.62,105.58-333.65z M102.95-346.08c-0.5-3.67-2-7.16-4.41-9.98c-3.34-4.01-8.02-6.56-12.95-8.09
				c-7.3-2.23-15.26-2.1-22.5,0.31c-4.86,1.66-9.31,4.43-12.84,8.17c-5.11,5.28-8.44,12.48-8.23,19.92
				c-0.02,5.25,1.71,10.23,4.16,14.82c3.19,5.87,7.61,10.58,12.52,15.02c4.97,4.48,10.43,9.21,16.42,12.25
				c0.99-0.93,1.97-1.88,2.88-2.9c3.61-4.07,7.13-8.22,10.38-12.59c4.8-6.39,9.43-13.46,12.26-20.97
				C102.58-335.17,103.78-340.66,102.95-346.08z M78.78-323.71c-5.5,2.67-12.21,1.7-16.84-2.25c-4.88-4.08-6.88-11.03-4.76-17.05
				c1.68-5.28,6.25-9.29,11.65-10.44c3.43-0.55,6.96-0.27,10.1,1.29c4.65,2.2,7.96,6.73,8.73,11.81
				C88.8-333.57,85-326.56,78.78-323.71z M81.6-345.64c-3.09-3.86-8.4-5.49-13.12-3.93c-5.37,1.62-9.1,7.07-8.51,12.68
				c0.44,6.03,5.67,11.01,11.74,11.05c5.33,0.29,10.32-3.24,11.96-8.29C84.94-338.02,84.2-342.45,81.6-345.64z"/>
			<path class="st1" d="M400.41-365.16c-0.54,3.91-1.82,7.79-2.93,11.57c-2.99,9.74-5.93,19.49-9.01,29.2
				c-3.14,9.92-6.06,20.15-10.04,29.76c-1.87,4.46-4.2,9.2-7.51,12.78c-2.74,3-6.44,4.9-10.41,5.63c-5.81,1.1-12.15,0.15-17.91-0.96
				c-7.38-1.5-14.67-3.48-21.9-5.56c-7.49-2.15-14.74-4.86-22.13-7.3c-1.42-0.48-2.74-0.89-3.97-1.77
				c-1.79-1.32-3.54-2.24-4.43-4.41c-1.34-3.06-0.43-7.1,0.21-10.27c3.05-12.89,6.94-25.62,10.67-38.32
				c2.9-9.67,5.74-19.42,8.94-28.99c2.16-6.47,4.33-12.94,6.64-19.35c0.49-1.38,1.47-2.62,2.33-3.81c0.67-0.94,1.8-1.03,2.86-1.15
				c4.41-0.22,9.04,0.21,13.41,0.45c8.56,0.59,17.19,1.69,25.72,2.77c7.98,1.12,16.14,2.23,23.92,4.36c3.6,1.01,7.32,2.66,9.22,6.08
				c1.5,2.7,1.21,5.44,0.86,8.39c1.58,1.13,3.08,2.14,4.16,3.81C400.54-370.09,400.72-367.65,400.41-365.16z M310-292.7
				c12.09,1.31,24.21,2.41,36.32,3.57c3.48,0.25,7.27,0.82,10.73,0.33c2.16-0.3,4.06-1.31,5.56-2.88c2.17-2.22,3.63-5.33,4.87-8.14
				c1.99-4.67,3.55-9.54,5.14-14.35c5.8-17.88,11.05-35.96,16.5-53.96c0.94-3.22,1.97-6.5,2.42-9.83c0.24-1.93,0.17-3.91-1.1-5.49
				c-1.67-2.07-4.46-3-6.94-3.69c-7.25-1.92-14.84-2.99-22.26-4.02c-10.95-1.42-21.87-2.77-32.91-3.22
				c-2.09-0.05-4.43-0.4-6.47,0.05c-0.51,1.02-0.85,1.88-1.84,2.54c-7.84,21.31-13.95,42.6-20.32,64.35
				c-1.75,5.97-3.39,11.96-4.9,17.99c-0.84,3.49-1.99,7.5-1.53,11.08c0.28,2,2.28,2.91,3.97,3.49
				C301.32-293.61,305.76-293.23,310-292.7z M396.59-369.3c-0.46-1.31-1.52-2.12-2.51-3.02c-1.89,6.71-3.99,13.36-5.97,20.04
				c-3.25,10.97-6.58,21.92-10.02,32.83c-2.04,6.41-4.06,12.88-6.53,19.14c-1.39,3.41-3,7.06-5.33,9.94
				c-1.9,2.35-4.39,4.16-7.37,4.87c-3.49,0.87-7.53,0.39-11.11,0.12c-11.37-1.02-22.74-2.17-34.11-3.26
				c9.14,2.87,18.35,5.44,27.7,7.51c4.66,0.98,9.39,1.85,14.16,1.74c3.22,0.01,6.42-0.52,9.26-2.11c2.66-1.49,4.64-3.84,6.24-6.39
				c2.59-4.12,4.47-8.83,6.16-13.39c2.82-7.78,5.21-15.74,7.69-23.64c3.08-9.83,6.11-19.69,9.11-29.55
				c0.93-3.16,1.94-6.33,2.57-9.56C396.85-365.71,397.17-367.64,396.59-369.3z M365.96-347c0.04,7.01-2.32,13.97-6.71,19.44
				c-3.69,4.55-8.7,7.93-14.49,9.11c-4.51,0.95-9.28,0.34-13.41-1.71c-4.92-2.42-8.71-6.7-10.86-11.71
				c-4.7-10.86-1.87-24.27,6.49-32.56c3.63-3.66,8.37-6.17,13.44-7.07c7.45-1.21,15.15,2.05,19.81,7.91
				C363.99-358.87,365.84-352.99,365.96-347z M347.68-367.65c3.16,4.68,3.57,10.05,3.42,15.54c4.01,1.21,8.18,2.85,11.27,5.76
				c-0.01-5.2-1.36-10.28-4.51-14.46c-2.28-3.06-5.46-5.41-9.13-6.52C348.38-367.43,348.03-367.54,347.68-367.65z M358.67-344.79
				c-2.4-1.7-5.1-2.78-7.88-3.67c-0.47,3.5-1.19,6.89-2.12,10.29c3.16-0.37,6.4-1.17,9.27-2.57c1.01-0.47,1.74-1.24,2.46-2.08
				C359.88-343.55,359.42-344.26,358.67-344.79z M335.05-353.77c4.15-0.04,8.28,0.14,12.37,0.85c0.11-5.14-0.22-10.1-3.83-14.1
				C339.68-363.53,336.85-358.64,335.05-353.77z M333.96-350.13c-0.86,3.63-1.24,7.26-1.12,10.99c3.88,1.06,7.84,1.38,11.85,1.42
				c1.28-3.72,2.02-7.7,2.54-11.59C342.84-350.05,338.41-350.26,333.96-350.13z M323.38-352.25c2.57-0.7,5.17-1.07,7.81-1.34
				c1.67-5.17,4.26-9.75,7.74-13.91C331.46-365.36,326-359.42,323.38-352.25z M322.77-348.24c0.26,1.32,0.34,2.61,1.17,3.72
				c1.38,1.88,3.24,3.02,5.25,4.11c0.01-3.2,0.37-6.31,0.98-9.45C327.64-349.57,325.17-349.1,322.77-348.24z M334.52-322.63
				c-3.05-3.75-4.4-9.04-5.03-13.74c-2.98-1.22-5.3-2.69-7.64-4.9c0.43,5.49,2.45,10.73,6.44,14.61
				C330.06-324.86,332.21-323.63,334.52-322.63z M339.63-326.52c1.74-2.25,2.9-4.97,3.93-7.6c-3.48-0.06-6.86-0.41-10.26-1.14
				c0.67,3.58,1.72,7.8,4.22,10.56C338.3-325.25,339.05-325.76,339.63-326.52z M361.12-338.4c-0.36,0.2-0.72,0.4-1.08,0.6
				c-3.89,2.11-8.27,2.95-12.61,3.5c-1.21,3.41-2.7,7.01-4.91,9.9c-0.85,1.14-1.93,1.99-3.07,2.81c4.17,0.11,8.23-1.01,11.7-3.35
				C356.01-328.13,359.26-332.96,361.12-338.4z M309.69-313.41c1.61,0.72,3.72,0.53,5.47,0.74c10.28,0.8,20.53,2.32,30.77,3.55
				c1.77,0.17,3.61,0.63,5.39,0.5c1.21-0.26,1.8-1.67,1.06-2.69c-0.54-0.8-1.81-0.85-2.68-1c-12.86-1.48-26.11-3.6-38.98-4.29
				C308.95-316.61,308.24-314.37,309.69-313.41z M307.07-306.27c-0.54,0.76,0.01,1.97,0.8,2.33c0.77,0.3,1.66,0.35,2.47,0.44
				c12.33,1.09,24.46,2.77,36.74,4.3c1.55,0.18,3.1,0.53,4.65,0.55c1.29,0.02,2.15-1.36,1.58-2.51c-0.46-0.99-1.86-1.06-2.8-1.23
				c-13.64-1.73-27.23-3.6-40.93-4.84C308.58-307.31,307.6-307.28,307.07-306.27z"/>
			<path class="st1" d="M195.52-178.24c-0.21,3.52-0.49,7.19-1.3,10.62c-0.65,2.73-1.76,5.28-3.67,7.38
				c-2.11,2.33-4.79,3.81-7.69,4.95c-4.21,1.64-8.77,2.69-13.17,3.66c-7.89,1.69-15.89,2.98-23.83,4.43
				c-15.44,2.76-30.81,5.85-46.2,8.88c-3.32,0.63-6.76,1.37-10.14,1.5c-2.16,0.07-4.2-0.6-6.05-1.69c-3.56-2.12-7.1-4.32-10.44-6.78
				c-1.85-1.37-3.47-2.95-4.56-5.01c-1.49-2.74-1.86-5.83-2.07-8.9c-0.23-4.96,0.08-9.92,0.09-14.83c0.24-8.54,0.31-17.1,0.42-25.65
				c0.16-3.57,0.17-7.14,0.2-10.72c0.08-6.88,0.32-13.77,0.55-20.66c0.24-3.24,0.02-6.18,0.85-9.14c0.45-1.34,1.66-2.48,2.74-3.36
				c2.66-2.04,5.88-3.43,9.1-4.29c7.39-1.97,14.72-3.21,22.19-4.75c0.33-4.99,1.11-10.56,3.6-14.98c1.92-3.47,5.1-5.88,8.77-7.3
				c4.39-1.76,9.34-2.43,14.03-2.82c4.8-0.41,9.92-0.43,14.64,0.64c3.26,0.76,6.22,2.48,7.97,5.41c1.95,3.19,2.19,7.47,2.14,11.11
				c5.34-0.42,10.55-0.92,15.89-0.05c3.38,0.54,6.52,1.68,9.68,2.93c3.72,1.53,8.15,3.29,10.85,6.37c2.59,2.88,3.19,7.01,3.75,10.7
				c0.98,8.1,1.18,16.33,1.45,24.48C195.63-203.38,196.18-191.03,195.52-178.24z M188.7-247c-3.33,0.93-6.73,1.34-10.12,1.94
				c-3.58,0.61-7.14,1.31-10.72,1.93c-14.94,2.61-29.74,5.88-44.67,8.57c-9.14,1.66-18.25,3.52-27.42,4.99
				c2.69,6.42,2.41,13.15,2.26,19.96c-0.52,10.84-1.78,21.76-3.17,32.52c-0.3,2.2-0.29,4.55,0.28,6.7c0.97,2.73,3.39,4.75,6.07,5.71
				c3.35,1.2,7.07,1.32,10.59,1.27c0.46-2.88,0.07-6.06,1.78-8.42c0.84-1.35,2.38-1.81,3.87-1.97c1.88-0.16,3.95,0.11,5.61,1.05
				c1.42,0.79,2.22,2.22,2.54,3.78c0.25,1.33,0.17,2.74,0.15,4.09c6.86-1.2,13.58-2.81,20.3-4.63c6.66-1.8,13.26-3.7,19.8-5.93
				c0.34-2.07,0.46-4.22,1.02-6.24c0.55-1.97,2.33-3.17,4.16-3.83c2.13-0.73,4.48-0.89,6.4,0.48c1.43,1.03,1.81,2.49,2.3,4.09
				c3.39-1.74,6.4-4.04,8.57-7.2c1.5-2.22,2.64-4.7,3.37-7.27c0.85-2.98,0.37-6.52,0.31-9.6c-0.16-9.32-0.41-18.65-1-27.96
				C190.57-237.56,190.35-242.66,188.7-247z M176.09-180.2c-0.11-0.81-0.33-1.97-1.31-2.12c-1.24-0.19-2.6,0.05-3.66,0.74
				c-0.95,0.46-0.76,1.96-1.03,2.85c-0.53,2.44-0.77,4.9-1.04,7.38c-0.08,1.01-0.14,2.26,0.33,3.2c0.41,0.73,1.41,0.42,2.08,0.33
				c2.06-0.54,3.33-2.21,3.91-4.18C176.08-174.51,176.35-177.61,176.09-180.2z M121.39-169.53c-1.32-0.83-3.19-0.83-4.66-0.45
				c-0.59,1.94-1.13,3.85-1.24,5.88c-0.18,3.16-1.05,5.95-0.1,8.99c1.5,0.36,2.95,0.65,4.37-0.18c1-0.68,1.31-2.23,1.55-3.34
				c0.44-2.54,0.75-5.17,0.87-7.75C122.17-167.33,122.21-168.86,121.39-169.53z M105.88-245.58c2.37-0.04,4.36-0.46,6.33-1.81
				c0.26-3.17,0.84-6.32,1.32-9.47c0.46-2.57,0.98-5.43,2.88-7.35c1.93-2.02,4.99-2.84,7.65-3.35c4.11-0.71,8.35-1.11,12.52-1.08
				c1.85,0.06,4.1,0.16,5.59,1.39c1.48,1.2,1.93,3,2.1,4.82c0.26,3.41-0.34,6.82-0.36,10.28c0.96,0,1.96,0.05,2.92-0.09
				c0.91-0.15,1.82-0.7,2.64-1.12c0.44-2.1,0.56-4.24,0.59-6.38c0.08-2.92,0.04-6.25-1.04-9.01c-0.88-2.23-2.81-3.76-5.07-4.47
				c-2.96-0.92-6.21-1.06-9.29-1.14c-5.07,0.13-10.28,0.51-15.21,1.77c-3.18,0.85-6.45,2.11-8.67,4.64
				c-2.44,2.8-3.37,6.36-3.99,9.92C106.1-253.92,106.01-249.72,105.88-245.58z M140.16-264.47c-2.79-0.83-5.69-0.51-8.57-0.37
				c-2.97,0.24-5.98,0.55-8.88,1.28c-1.69,0.47-3.53,1.12-4.4,2.77c-0.85,1.68-1.08,3.8-1.43,5.63c7.92-1.24,15.83-2.58,23.77-3.7
				C140.78-260.77,140.74-262.63,140.16-264.47z M72.6-239.91c4.48,0.74,9.32,1.27,13.69,2.59c2.8,0.86,5.21,2.25,7.26,4.35
				c2.53-0.21,4.97-0.69,7.46-1.13c8.16-1.5,16.32-3.05,24.48-4.55c13.39-2.44,26.67-5.39,40.08-7.74c4.31-0.74,8.6-1.58,12.92-2.32
				c2.6-0.45,5.2-0.81,7.78-1.39c-2.99-2.2-6.61-3.58-10.06-4.9c-3.28-1.26-6.62-2.17-10.15-2.33c-4.16-0.15-8.31,0-12.44,0.48
				c-0.19,1.68-0.26,3.59-0.94,5.15c-2.38,3.03-6.89,3.89-10.45,2.8c-0.76-0.25-1.8-0.76-1.97-1.63c-0.07-1.54,0.11-3.09,0.12-4.63
				c-8.01,1.11-15.99,2.47-23.97,3.73c-0.34,1.8-0.54,3.63-0.96,5.41c-0.14,0.68-0.62,1.07-1.14,1.48
				c-2.37,1.81-5.38,2.57-8.33,2.59c-1.2-0.03-2.38-0.23-3.05-1.34c-0.98-1.5-0.51-3.86-0.55-5.57c-7.04,1.42-14.24,2.66-21.15,4.5
				C78.15-243.51,74.92-242.13,72.6-239.91z M87.69-150.31c1.01-7.4,2.07-14.8,2.97-22.21c1.58-12.95,3.43-26.37,3.81-39.42
				c0.23-3.18,0.01-6.27-0.3-9.44c-0.34-2.79-1-5.92-2.61-8.27c-1.68-2.43-4.27-3.67-7.04-4.45c-4.11-1.11-8.54-1.62-12.74-2.28
				c-0.3,1.25-0.39,2.52-0.41,3.81c-0.57,14.65-0.74,29.33-0.93,44c-0.29,7.64-0.18,15.3-0.47,22.94c-0.11,2.81-0.02,5.61,0.24,8.41
				c0.23,2.18,0.73,4.38,2.02,6.2c1.07,1.53,2.53,2.57,4.03,3.63c3.06,2.16,6.24,4.12,9.46,6.04
				C86.97-144.25,87.17-147.23,87.69-150.31z M192.2-187.57c-1.68,2.79-3.87,5.25-6.51,7.17c-1.86,1.4-3.89,2.37-5.93,3.47
				c-0.2,2.87-0.56,5.94-2.04,8.47c-1.64,2.85-4.9,4.74-8.23,4.31c-1.53-0.17-2.83-1.2-3.47-2.59c-0.73-1.52-0.61-3.11-0.64-4.75
				c-4.77,1.62-9.61,3.05-14.47,4.41c-8.39,2.34-16.98,4.5-25.57,5.95c-0.33,2.2-0.61,4.76-1.69,6.73
				c-1.03,1.87-2.93,3.04-5.04,3.22c-2.26,0.22-4.51-0.02-6-1.92c-1.53-2.02-1.23-4.22-1.21-6.59c-4.3-0.03-9-0.3-12.93-2.22
				c-1.97-0.93-3.57-2.35-4.99-3.99c-1.04,7.28-1.9,14.6-3.15,21.84c-0.2,1.31-0.68,2.5-1.26,3.68c4.21-0.22,8.11-1.13,12.26-1.92
				c14.28-2.85,28.56-5.68,42.89-8.25c8.09-1.49,16.23-2.82,24.28-4.5c4.24-0.92,8.59-1.88,12.66-3.4c2.7-1.03,5.36-2.4,7.19-4.72
				c1.82-2.32,2.45-5.22,2.88-8.07C191.99-176.65,192.09-182.14,192.2-187.57z"/>
			<path class="st1" d="M392.33-146.63c-0.86,1.92-2.61,2.92-4.56,3.48c-3.78,1.07-8.17,0.78-12.07,0.65
				c-4.59-0.31-9.25-0.42-13.81-1.07c-2.81,3.59-6.9,6.02-11.43,6.65c-6.9,1.03-13.93-2.53-17.37-8.56
				c-4.4,0.34-8.83-0.02-13.24,0.24c-5.99,0.17-11.99,0.16-17.97,0.45c-4.14,0.09-8.38,0.23-12.49,0.54
				c-0.77,0.56-1.37,1.37-2.08,2.01c-4.23,3.92-10.47,5.44-16.02,3.83c-3.73-1.03-6.94-3.32-9.24-6.42
				c-1.52,0.03-3.04,0.03-4.56-0.07c-4.08-0.23-8.17-0.2-12.25-0.35c-4.7-0.26-9.48,0.1-14.16-0.36c-1.78-0.21-3.96-0.67-5.08-2.21
				c-1.11-1.5-0.88-3.35-0.94-5.11c0.03-1.74-0.17-3.74,0.78-5.27c0.58-1,1.53-1.42,2.48-1.99c0.15-6.26,2.82-11.95,6.69-16.76
				c3.57-4.38,8.62-7.17,14.11-8.36c3.19-0.76,6.4-0.8,9.63-1.23c1.59-0.23,3.04-0.7,3.93-2.14c1.3-2.12,1.77-4.89,2.33-7.29
				c1.73-7.96,4.14-16.18,8.66-23.04c3.59-5.44,8.62-9.86,14.52-12.64c8.22-3.95,17.7-4.92,26.71-4.77
				c7.18,0.17,14.45,0.99,21.43,2.76c5.72,1.48,11.39,3.69,16.24,7.12c4.81,3.4,8.7,8.03,10.98,13.48
				c2.85,6.7,3.14,13.93,2.88,21.12c-0.03,1.84-0.24,3.88,0.25,5.66c0.25,0.91,1.01,1.31,1.87,1.48c2.21,0.43,4.52,0.25,6.77,0.54
				c3.89,0.37,7.74,1.24,10.94,3.6c2.88,2.15,4.62,5.38,5.25,8.88c0.95,4.82-0.18,10.27-1.2,15.02c1.43,0.85,2.65,1.74,2.88,3.52
				C393.35-151.06,393.19-148.66,392.33-146.63z M338.47-187.54c8.15,0.32,16.27,1.16,24.42,1.5c-0.36-3.65,0.02-7.22-0.07-10.89
				c-0.1-6.52-1.05-12.9-4.58-18.51c-4.12-6.62-10.86-10.94-18.17-13.31c-0.06,6.13-0.07,12.29-0.41,18.41
				c-0.16,4.85-0.48,9.69-0.62,14.54C338.87-193.04,338.78-190.28,338.47-187.54z M298.32-188.41c12.19-0.08,24.37,0.28,36.56,0.64
				c0.57-6.12,0.68-12.29,0.99-18.43c0.47-7.89,0.51-15.77,0.68-23.68c-5.97-1.58-12.09-2.44-18.24-2.79
				c-5.57-0.24-11.37-0.22-16.87,0.74c-0.15,12.32-1.78,24.65-2.63,36.94C298.62-192.8,298.52-190.6,298.32-188.41z M266.43-188.07
				c9.43-0.12,18.88-0.35,28.32-0.34c0.74-14.27,2.73-28.58,3.08-42.85c-6.66,1.6-12.84,4.62-17.58,9.66
				c-5.63,5.93-8.46,13.45-10.51,21.22C268.56-196.11,268.12-192.11,266.43-188.07z M260.02-148.42c-1.03-2.91-1.42-5.59-1.09-8.67
				c-9.01-0.32-18.08-0.15-27.09,0.11c-0.92,0.06-1.96,0.12-2.81,0.48c-0.6,1.12-0.37,2.72-0.42,3.96c0.07,0.84-0.1,2.07,0.46,2.75
				c1.75,0.78,3.95,0.71,5.84,0.8C243.28-148.94,251.65-148.75,260.02-148.42z M285.67-163.91c-3.06-3.3-7.51-4.81-11.95-4.06
				c-5.97,0.8-10.8,5.96-11.2,11.97c-0.29,3.32,0.55,6.57,2.56,9.24c2.94,4.02,8.17,6.11,13.07,5.2c3.91-0.65,7.42-3.12,9.36-6.58
				C290.34-153.09,289.64-159.76,285.67-163.91z M331.57-148.91c-0.82-3.08-0.93-5.62-0.38-8.78c-12.78-0.1-25.6,0.31-38.34,1.47
				c0.12,2.98-0.3,5.41-1.37,8.19c6.52-0.32,13.04-0.51,19.56-0.63C317.88-148.92,324.73-148.9,331.57-148.91z M361.53-156.78
				c-0.95-4.88-4.73-8.98-9.5-10.35c-2.42-0.69-5.07-0.66-7.5-0.03c-5.88,1.44-10.14,7.06-10.08,13.09
				c-0.11,5.43,3.28,10.58,8.29,12.65c4.35,1.85,9.63,1.29,13.44-1.55C360.48-146.07,362.62-151.59,361.53-156.78z M364.71-158.9
				c7.31,0.64,14.65,0.82,21.94,1.53c1.02-4.2,1.87-8.85,1.34-13.17c-0.39-3.12-1.87-6.01-4.58-7.71
				c-3.75-2.35-8.41-2.42-12.69-2.69c-2.19-0.04-4.09-0.44-5.95-1.63c-2.85,0.2-5.64,0.02-8.49-0.2
				c-24.53-1.97-48.99-2.22-73.58-1.95c-6.24,0.13-12.52,0.31-18.76,0.17c-1.07,0.29-2.02,0.96-3.11,1.24
				c-2.89,0.75-6.05,0.65-9.02,1.15c-4.75,0.72-9.22,2.5-12.66,5.94c-3.98,4.11-6.98,9.78-7.24,15.58
				c9.31-0.28,18.64-0.22,27.95-0.11c1.11-2.59,2.62-4.96,4.77-6.82c3.7-3.19,8.62-4.87,13.49-4.07c5.02,0.7,9.6,3.67,12.21,8.02
				c0.74,1.2,1.25,2.48,1.76,3.78c5.41-0.42,10.82-0.88,16.25-1.03c5.61-0.39,11.21-0.31,16.82-0.52c2.41-0.08,4.81,0.08,7.22,0.11
				c2.7-5.65,8.33-9.61,14.6-10.05c4.86-0.26,9.85,1.62,13.3,5.08C362.4-164.19,363.78-161.65,364.71-158.9z M389.63-153.07
				c-2.73-0.93-5.32-0.84-8.19-1.12c-5.37-0.32-10.74-0.68-16.11-0.98c0.11,3.06-0.27,5.41-1.44,8.23c4.69,0.42,9.4,0.7,14.11,0.87
				c2.75,0.14,5.61,0.13,8.31-0.43c1.06-0.28,2.45-0.64,2.81-1.83C389.64-149.78,389.62-151.54,389.63-153.07z"/>
			<g>
				<path class="st1" d="M150.37-316.25c-0.04,0-0.08,0-0.12,0c-1.94-0.16-3.92-0.24-5.89-0.26c-0.83-0.01-1.5-0.68-1.49-1.51
					s0.7-1.54,1.51-1.49c2.04,0.01,4.09,0.1,6.1,0.27c0.83,0.07,1.44,0.79,1.38,1.61C151.81-316.85,151.15-316.25,150.37-316.25z"/>
				<path class="st1" d="M291.74-250.25c-2.41,0-4.86-0.13-7.27-0.38c-0.82-0.09-1.42-0.82-1.34-1.65c0.09-0.82,0.83-1.41,1.65-1.34
					c2.31,0.24,4.65,0.36,6.96,0.36c0.01,0,0.02,0,0.03,0c1.45,0,2.93-0.05,4.39-0.14c0.84-0.04,1.54,0.57,1.59,1.4
					c0.05,0.83-0.57,1.54-1.4,1.59c-1.53,0.1-3.07,0.15-4.59,0.15C291.76-250.25,291.75-250.25,291.74-250.25z M273.2-252.77
					c-0.13,0-0.26-0.02-0.39-0.05c-3.66-0.99-7.42-2.31-11.17-3.9c-0.76-0.32-1.12-1.21-0.79-1.97c0.32-0.76,1.21-1.12,1.97-0.79
					c3.63,1.54,7.25,2.81,10.78,3.77c0.8,0.22,1.27,1.04,1.05,1.84C274.47-253.21,273.86-252.77,273.2-252.77z M251.77-261.74
					c-0.25,0-0.5-0.06-0.73-0.19c-3.21-1.78-6.5-3.77-10.06-6.09c-0.69-0.45-0.89-1.38-0.44-2.08c0.45-0.69,1.38-0.89,2.08-0.44
					c3.5,2.28,6.73,4.23,9.88,5.98c0.73,0.4,0.99,1.31,0.59,2.04C252.81-262.02,252.3-261.74,251.77-261.74z M232.18-274.36
					c-0.3,0-0.6-0.09-0.87-0.28c-3.22-2.29-6.43-4.65-9.45-6.87c-0.67-0.49-0.81-1.43-0.32-2.1c0.49-0.67,1.43-0.81,2.1-0.32
					c3,2.21,6.2,4.56,9.41,6.84c0.67,0.48,0.83,1.42,0.35,2.09C233.11-274.58,232.65-274.36,232.18-274.36z M213.35-288.11
					c-0.3,0-0.61-0.09-0.88-0.29c-3.61-2.61-6.63-4.73-9.5-6.67c-0.69-0.46-0.87-1.4-0.4-2.08s1.39-0.87,2.08-0.4
					c2.9,1.96,5.94,4.1,9.58,6.73c0.67,0.49,0.82,1.42,0.34,2.09C214.27-288.33,213.81-288.11,213.35-288.11z M193.98-301.08
					c-0.26,0-0.53-0.07-0.77-0.21c-3.51-2.09-6.82-3.9-10.12-5.51c-0.74-0.36-1.05-1.26-0.69-2.01c0.36-0.74,1.26-1.05,2.01-0.69
					c3.37,1.65,6.75,3.49,10.33,5.63c0.71,0.42,0.94,1.34,0.52,2.06C194.99-301.34,194.5-301.08,193.98-301.08z M173.06-311.22
					c-0.17,0-0.34-0.03-0.51-0.09c-3.66-1.33-7.35-2.42-10.98-3.23c-0.81-0.18-1.32-0.98-1.14-1.79s0.98-1.31,1.79-1.14
					c3.75,0.84,7.57,1.96,11.35,3.34c0.78,0.28,1.18,1.14,0.9,1.92C174.24-311.6,173.67-311.22,173.06-311.22z"/>
				<path class="st1" d="M307.84-252.08c-0.69,0-1.31-0.47-1.46-1.17c-0.18-0.81,0.33-1.61,1.13-1.79c1.88-0.42,3.79-0.93,5.7-1.5
					c0.79-0.24,1.63,0.21,1.87,1c0.24,0.79-0.21,1.63-1,1.87c-1.97,0.59-3.96,1.12-5.91,1.55
					C308.06-252.09,307.95-252.08,307.84-252.08z"/>
			</g>
			<path class="st1" d="M393.59-419.08c-0.68,0-1.3-0.47-1.46-1.17c-0.89-3.9-1.51-7.96-1.86-12.05c-0.07-0.83,0.54-1.55,1.37-1.62
				c0.81-0.06,1.55,0.54,1.62,1.37c0.34,3.96,0.94,7.88,1.8,11.64c0.18,0.81-0.32,1.61-1.13,1.8
				C393.81-419.09,393.7-419.08,393.59-419.08z M391.5-442.91c-0.02,0-0.04,0-0.06,0c-0.83-0.03-1.47-0.73-1.44-1.56
				c0.15-3.9,0.52-7.97,1.11-12.1c0.12-0.82,0.88-1.39,1.7-1.27c0.82,0.12,1.39,0.88,1.27,1.7c-0.57,4.03-0.94,8-1.08,11.79
				C392.97-443.55,392.3-442.91,391.5-442.91z M394.79-466.66c-0.11,0-0.22-0.01-0.33-0.04c-0.81-0.18-1.32-0.99-1.13-1.79
				c0.84-3.72,1.87-7.66,3.05-11.7c0.23-0.8,1.07-1.25,1.86-1.02c0.79,0.23,1.25,1.07,1.02,1.86c-1.17,3.99-2.18,7.86-3.01,11.52
				C396.09-467.13,395.48-466.66,394.79-466.66z M401.46-489.71c-0.16,0-0.32-0.03-0.48-0.08c-0.78-0.27-1.2-1.12-0.94-1.9
				c1.2-3.51,2.53-7.22,4.07-11.34c0.29-0.78,1.16-1.17,1.93-0.88c0.78,0.29,1.17,1.15,0.88,1.93c-1.53,4.1-2.85,7.78-4.04,11.26
				C402.67-490.11,402.09-489.71,401.46-489.71z M409.8-512.23c-0.18,0-0.36-0.03-0.54-0.1c-0.77-0.3-1.16-1.17-0.86-1.94l1.78-4.57
				c0.86-2.21,1.72-4.42,2.57-6.61c0.3-0.77,1.17-1.15,1.94-0.86c0.77,0.3,1.16,1.17,0.86,1.94c-0.85,2.2-1.71,4.4-2.57,6.62
				l-1.78,4.57C410.97-512.59,410.4-512.23,409.8-512.23z M418.4-534.64c-0.17,0-0.35-0.03-0.52-0.09
				c-0.78-0.28-1.18-1.15-0.89-1.92c1.51-4.13,2.79-7.83,3.91-11.29c0.25-0.79,1.1-1.22,1.89-0.97c0.79,0.25,1.22,1.1,0.97,1.89
				c-1.13,3.5-2.42,7.23-3.95,11.4C419.59-535.02,419.01-534.64,418.4-534.64z M425.67-557.51c-0.12,0-0.25-0.02-0.37-0.05
				c-0.8-0.2-1.29-1.02-1.09-1.82c1.05-4.14,1.83-7.93,2.38-11.61c0.12-0.82,0.88-1.38,1.71-1.26c0.82,0.12,1.38,0.89,1.26,1.71
				c-0.57,3.77-1.36,7.66-2.44,11.9C426.96-557.96,426.34-557.51,425.67-557.51z M429.06-581.2c0,0-0.01,0-0.01,0
				c-0.83-0.01-1.49-0.68-1.49-1.51l0-0.33c0-3.94-0.35-7.74-1.04-11.3c-0.16-0.81,0.37-1.6,1.19-1.76s1.6,0.37,1.76,1.19
				c0.73,3.74,1.1,7.74,1.1,11.87l0,0.36C430.55-581.86,429.88-581.2,429.06-581.2z M424.37-604.54c-0.57,0-1.12-0.33-1.37-0.88
				c-1.57-3.46-3.58-6.81-5.99-9.96c-0.5-0.66-0.38-1.6,0.28-2.1c0.66-0.5,1.6-0.38,2.1,0.28c2.55,3.33,4.68,6.88,6.34,10.55
				c0.34,0.75,0.01,1.64-0.75,1.99C424.79-604.58,424.58-604.54,424.37-604.54z M410.03-623.55c-0.36,0-0.71-0.13-1-0.38
				c-2.77-2.48-5.91-4.89-9.33-7.18c-0.69-0.46-0.87-1.39-0.41-2.08c0.46-0.69,1.39-0.87,2.08-0.41c3.54,2.36,6.79,4.87,9.67,7.44
				c0.62,0.55,0.67,1.5,0.12,2.12C410.86-623.72,410.45-623.55,410.03-623.55z"/>
			<path class="st1" d="M144.28-390c-0.29,0-0.59-0.09-0.85-0.26c-0.68-0.47-0.85-1.4-0.38-2.09c2.12-3.08,4.12-6.5,5.93-10.15
				c0.37-0.74,1.27-1.04,2.01-0.68c0.74,0.37,1.05,1.27,0.68,2.01c-1.87,3.78-3.94,7.32-6.15,10.52
				C145.23-390.23,144.76-390,144.28-390z M155.03-411.37c-0.17,0-0.35-0.03-0.52-0.09c-0.78-0.29-1.17-1.15-0.89-1.93
				c1.28-3.46,2.48-7.16,3.68-11.31c0.23-0.8,1.06-1.25,1.86-1.02c0.8,0.23,1.25,1.06,1.02,1.86c-1.22,4.22-2.45,7.98-3.75,11.51
				C156.22-411.75,155.64-411.37,155.03-411.37z M161.83-434.39c-0.12,0-0.24-0.01-0.36-0.04c-0.8-0.2-1.3-1.01-1.1-1.82
				c0.89-3.6,1.75-7.27,2.58-10.82l0.2-0.85c0.19-0.81,0.99-1.31,1.8-1.12c0.81,0.19,1.31,1,1.12,1.8l-0.2,0.85
				c-0.83,3.56-1.69,7.24-2.58,10.85C163.12-434.84,162.5-434.39,161.83-434.39z M167.41-457.74c-0.12,0-0.24-0.02-0.37-0.05
				c-0.8-0.2-1.29-1.02-1.09-1.82c1.11-4.42,2.16-8.23,3.19-11.65c0.24-0.79,1.08-1.24,1.87-1c0.79,0.24,1.24,1.08,1,1.87
				c-1.02,3.38-2.06,7.14-3.16,11.51C168.69-458.2,168.08-457.74,167.41-457.74z M174.52-480.65c-0.19,0-0.38-0.04-0.56-0.11
				c-0.77-0.31-1.14-1.18-0.83-1.95c1.63-4.06,3.35-7.65,5.25-11c0.41-0.72,1.33-0.97,2.05-0.56c0.72,0.41,0.97,1.33,0.56,2.05
				c-1.83,3.23-3.49,6.7-5.07,10.63C175.68-481.01,175.12-480.65,174.52-480.65z M186.5-501.3c-0.34,0-0.69-0.12-0.97-0.36
				c-0.63-0.54-0.71-1.48-0.17-2.11c2.69-3.16,5.69-6,8.92-8.43c0.66-0.5,1.6-0.36,2.1,0.3c0.5,0.66,0.36,1.6-0.3,2.1
				c-3.06,2.3-5.9,4.98-8.44,7.97C187.35-501.48,186.93-501.3,186.5-501.3z M205.46-515.57c-0.57,0-1.11-0.33-1.37-0.88
				c-0.34-0.75-0.01-1.64,0.74-1.99c3.55-1.62,7.44-2.96,11.54-4c0.8-0.2,1.62,0.28,1.82,1.09c0.2,0.8-0.28,1.62-1.09,1.82
				c-3.93,0.99-7.64,2.27-11.03,3.82C205.88-515.61,205.67-515.57,205.46-515.57z"/>
			<circle class="st1" cx="137.04" cy="-362.96" r="5.96"/>
			<circle class="st1" cx="245.95" cy="-299.35" r="3.6"/>
			<circle class="st1" cx="261.15" cy="-420.79" r="4.99"/>
			<circle class="st1" cx="47.14" cy="-270.52" r="8.77"/>
			<circle class="st1" cx="53.37" cy="-137.24" r="3.12"/>
			<circle class="st1" cx="156.19" cy="-118.71" r="6.09"/>
			<circle class="st1" cx="223.55" cy="-216.09" r="8.7"/>
			<circle class="st1" cx="253.01" cy="-234.24" r="6.23"/>
			<circle class="st1" cx="386.41" cy="-212.88" r="3.21"/>
			<circle class="st1" cx="367.44" cy="-251.61" r="3.55"/>
			<circle class="st1" cx="338.05" cy="-258.14" r="3.6"/>
			<circle class="st1" cx="416.69" cy="-315.95" r="6.26"/>
			<circle class="st1" cx="362.07" cy="-414.97" r="3.6"/>
			<circle class="st1" cx="281.14" cy="-367.35" r="4.39"/>
			<circle class="st1" cx="192.95" cy="-475.78" r="3.46"/>
			<circle class="st1" cx="36.63" cy="-387.79" r="2.21"/>
			<circle class="st1" cx="119.01" cy="-297.02" r="4.06"/>
			<circle class="st1" cx="191.33" cy="-278.6" r="2.45"/>
		</g>
		<g>
			<path class="st1" d="M3.59-419.08c-0.68,0-1.3-0.47-1.46-1.17c-0.89-3.9-1.51-7.96-1.86-12.05c-0.07-0.83,0.54-1.55,1.37-1.62
				c0.81-0.06,1.55,0.54,1.62,1.37c0.34,3.96,0.94,7.88,1.8,11.64c0.18,0.81-0.32,1.61-1.13,1.8C3.81-419.09,3.7-419.08,3.59-419.08
				z M1.5-442.91c-0.02,0-0.04,0-0.06,0c-0.83-0.03-1.47-0.73-1.44-1.56c0.15-3.9,0.52-7.97,1.11-12.1c0.12-0.82,0.88-1.39,1.7-1.27
				c0.82,0.12,1.39,0.88,1.27,1.7c-0.57,4.03-0.94,8-1.08,11.79C2.97-443.55,2.3-442.91,1.5-442.91z M4.79-466.66
				c-0.11,0-0.22-0.01-0.33-0.04c-0.81-0.18-1.32-0.99-1.13-1.79c0.84-3.72,1.87-7.66,3.05-11.7c0.23-0.8,1.07-1.25,1.86-1.02
				c0.79,0.23,1.25,1.07,1.02,1.86c-1.17,3.99-2.18,7.86-3.01,11.52C6.09-467.13,5.48-466.66,4.79-466.66z M11.46-489.71
				c-0.16,0-0.32-0.03-0.48-0.08c-0.78-0.27-1.2-1.12-0.94-1.9c1.2-3.51,2.53-7.22,4.07-11.34c0.29-0.78,1.16-1.17,1.93-0.88
				c0.78,0.29,1.17,1.15,0.88,1.93c-1.53,4.1-2.85,7.78-4.04,11.26C12.67-490.11,12.09-489.71,11.46-489.71z M19.8-512.23
				c-0.18,0-0.36-0.03-0.54-0.1c-0.77-0.3-1.16-1.17-0.86-1.94l1.78-4.57c0.86-2.21,1.72-4.42,2.57-6.61
				c0.3-0.77,1.17-1.15,1.94-0.86c0.77,0.3,1.16,1.17,0.86,1.94c-0.85,2.2-1.71,4.4-2.57,6.62l-1.78,4.57
				C20.97-512.59,20.4-512.23,19.8-512.23z M28.4-534.64c-0.17,0-0.35-0.03-0.52-0.09c-0.78-0.28-1.18-1.15-0.89-1.92
				c1.51-4.13,2.79-7.83,3.91-11.29c0.25-0.79,1.1-1.22,1.89-0.97c0.79,0.25,1.22,1.1,0.97,1.89c-1.13,3.5-2.42,7.23-3.95,11.4
				C29.59-535.02,29.01-534.64,28.4-534.64z M35.67-557.51c-0.12,0-0.25-0.02-0.37-0.05c-0.8-0.2-1.29-1.02-1.09-1.82
				c1.05-4.14,1.83-7.93,2.38-11.61c0.12-0.82,0.88-1.38,1.71-1.26c0.82,0.12,1.38,0.89,1.26,1.71c-0.57,3.77-1.36,7.66-2.44,11.9
				C36.96-557.96,36.34-557.51,35.67-557.51z M39.06-581.2c0,0-0.01,0-0.01,0c-0.83-0.01-1.49-0.68-1.49-1.51l0-0.33
				c0-3.94-0.35-7.74-1.04-11.3c-0.16-0.81,0.37-1.6,1.19-1.76s1.6,0.37,1.76,1.19c0.73,3.74,1.1,7.74,1.1,11.87l0,0.36
				C40.55-581.86,39.88-581.2,39.06-581.2z M34.37-604.54c-0.57,0-1.12-0.33-1.37-0.88c-1.57-3.46-3.58-6.81-5.99-9.96
				c-0.5-0.66-0.38-1.6,0.28-2.1c0.66-0.5,1.6-0.38,2.1,0.28c2.55,3.33,4.68,6.88,6.34,10.55c0.34,0.75,0.01,1.64-0.75,1.99
				C34.79-604.58,34.58-604.54,34.37-604.54z M20.03-623.55c-0.36,0-0.71-0.13-1-0.38c-2.77-2.48-5.91-4.89-9.33-7.18
				c-0.69-0.46-0.87-1.39-0.41-2.08c0.46-0.69,1.39-0.87,2.08-0.41c3.54,2.36,6.79,4.87,9.67,7.44c0.62,0.55,0.67,1.5,0.12,2.12
				C20.86-623.72,20.45-623.55,20.03-623.55z"/>
			<circle class="st1" cx="26.69" cy="-315.95" r="6.26"/>
		</g>
		<g>
			<circle class="st1" cx="156.19" cy="-508.71" r="6.09"/>
		</g>
	</g>
</pattern>
<g id="Background">
	<rect class="st2" width="1170" height="780"/>
</g>
<g id="Pattern">
	<rect class="st3" width="1170" height="780"/>
</g>
</svg>
